<!-- icon666.com - MILLIONS vector ICONS FREE --><svg id="Layer_1" viewBox="0 0 512 512" xmlns="http://www.w3.org/2000/svg" xmlns:xlink="http://www.w3.org/1999/xlink" data-name="Layer 1"><linearGradient id="GradientFill_1" gradientUnits="userSpaceOnUse" x1="255.999" x2="256" y1="512.016" y2="-.017"><stop offset="0" stop-color="#6c54a3"></stop><stop offset="1" stop-color="#00b1d2"></stop></linearGradient><path d="m329.863 183.1a21 21 0 1 1 -29.7-.943l.014-.021a21.008 21.008 0 0 1 29.686.964zm29.157-30.114a92.621 92.621 0 0 1 27.242 65.951 21 21 0 1 0 42 0 135 135 0 0 0 -135.2-135.198 21 21 0 1 0 0 41.995 92.656 92.656 0 0 1 65.958 27.249zm95.622-95.629a194.825 194.825 0 0 0 -138.711-57.373 21 21 0 0 0 0 42 153.872 153.872 0 0 1 154.086 154.088 21 21 0 1 0 42 0 194.877 194.877 0 0 0 -57.375-138.718zm-391.427 29.19c-22.355 32.371-31.292 74.467-6.151 120.406 59.006 107.861 140.125 188.972 247.979 247.979 45.875 25.106 87.92 16.232 120.271-6.052a749.639 749.639 0 0 0 -76.775-81.726q-10.032 3.976-20.255 7.438c-39.923 17.525-102.152-38.445-127.294-63.587s-81.1-87.37-63.579-127.293q3.408-10.106 7.359-20.055a735.723 735.723 0 0 0 -81.555-77.11zm109.3 20.268c-.014.029-.028.051-.043.079q-4.511 7.674-8.666 15.539a781.131 781.131 0 0 0 -72.106-66.858 169.492 169.492 0 0 1 15.417-11.488l65.394 62.728zm232.665 232.669 62.743 65.4a173.3 173.3 0 0 1 -11.6 15.54 790.5 790.5 0 0 0 -66.651-72.281q7.822-4.147 15.432-8.609c.028-.022.05-.029.078-.05zm-272.256 39.6c43.911 43.91 93.615 80.783 151.957 112.7 24.591 13.453 50.24 20.233 75.868 20.233a148.393 148.393 0 0 0 47.761-7.973c36.729-12.41 70.28-39.43 94.479-76.046 16.668-25.249 6.08-40.888.75-46.439l-68.859-71.775c-13.16-13.718-34.158-16.39-51.04-6.473a370.547 370.547 0 0 1 -69.981 31.814 21.343 21.343 0 0 0 -2.15.858c-2.529.293-12.067-1.4-29.65-12.46-15.9-10-34.151-24.992-51.369-42.217s-32.215-35.458-42.217-51.369c-11.053-17.576-12.746-27.114-12.46-29.643a20.126 20.126 0 0 0 .857-2.157 370.613 370.613 0 0 1 31.822-69.981c9.909-16.882 7.244-37.873-6.48-51.04l-71.774-68.859c-5.544-5.323-21.191-15.918-46.432.757-36.63 24.2-63.636 57.749-76.053 94.472-13.839 40.931-9.6 83.677 12.26 123.629 31.929 58.342 68.787 108.053 112.711 151.971z" fill="url(#GradientFill_1)" fill-rule="evenodd" style="fill: rgb(181, 181, 181);"></path></svg>